<mxfile host="app.diagrams.net" agent="Mozilla/5.0 (Windows NT 10.0; Win64; x64) AppleWebKit/537.36 (KHTML, like Gecko) Chrome/131.0.0.0 Safari/537.36" version="25.0.3">
  <diagram id="C5RBs43oDa-KdzZeNtuy" name="Page-1">
    <mxGraphModel dx="1050" dy="557" grid="1" gridSize="10" guides="1" tooltips="1" connect="1" arrows="1" fold="1" page="1" pageScale="1" pageWidth="827" pageHeight="1169" math="0" shadow="0">
      <root>
        <mxCell id="WIyWlLk6GJQsqaUBKTNV-0" />
        <mxCell id="WIyWlLk6GJQsqaUBKTNV-1" parent="WIyWlLk6GJQsqaUBKTNV-0" />
        <mxCell id="671-912yYRA_76WJ44N1-2" value="" style="edgeStyle=orthogonalEdgeStyle;rounded=0;orthogonalLoop=1;jettySize=auto;html=1;" edge="1" parent="WIyWlLk6GJQsqaUBKTNV-1" source="671-912yYRA_76WJ44N1-0" target="671-912yYRA_76WJ44N1-1">
          <mxGeometry relative="1" as="geometry" />
        </mxCell>
        <mxCell id="671-912yYRA_76WJ44N1-0" value="Inicio" style="ellipse;whiteSpace=wrap;html=1;aspect=fixed;" vertex="1" parent="WIyWlLk6GJQsqaUBKTNV-1">
          <mxGeometry x="100" y="40" width="80" height="80" as="geometry" />
        </mxCell>
        <mxCell id="671-912yYRA_76WJ44N1-4" value="" style="edgeStyle=orthogonalEdgeStyle;rounded=0;orthogonalLoop=1;jettySize=auto;html=1;" edge="1" parent="WIyWlLk6GJQsqaUBKTNV-1" source="671-912yYRA_76WJ44N1-1" target="671-912yYRA_76WJ44N1-3">
          <mxGeometry relative="1" as="geometry" />
        </mxCell>
        <mxCell id="671-912yYRA_76WJ44N1-1" value="Mostrar mensaje &quot;Por favor ingrese las medidas del mueble (en cms)&quot;" style="shape=parallelogram;perimeter=parallelogramPerimeter;whiteSpace=wrap;html=1;fixedSize=1;" vertex="1" parent="WIyWlLk6GJQsqaUBKTNV-1">
          <mxGeometry x="20" y="190" width="240" height="100" as="geometry" />
        </mxCell>
        <mxCell id="671-912yYRA_76WJ44N1-6" value="" style="edgeStyle=orthogonalEdgeStyle;rounded=0;orthogonalLoop=1;jettySize=auto;html=1;" edge="1" parent="WIyWlLk6GJQsqaUBKTNV-1" source="671-912yYRA_76WJ44N1-3" target="671-912yYRA_76WJ44N1-5">
          <mxGeometry relative="1" as="geometry" />
        </mxCell>
        <mxCell id="671-912yYRA_76WJ44N1-3" value="Convertir medida_en_pulgadas = medida_en_cms / 2.54" style="rounded=1;whiteSpace=wrap;html=1;" vertex="1" parent="WIyWlLk6GJQsqaUBKTNV-1">
          <mxGeometry x="60" y="350" width="160" height="100" as="geometry" />
        </mxCell>
        <mxCell id="671-912yYRA_76WJ44N1-8" value="" style="edgeStyle=orthogonalEdgeStyle;rounded=0;orthogonalLoop=1;jettySize=auto;html=1;" edge="1" parent="WIyWlLk6GJQsqaUBKTNV-1" source="671-912yYRA_76WJ44N1-5" target="671-912yYRA_76WJ44N1-7">
          <mxGeometry relative="1" as="geometry" />
        </mxCell>
        <mxCell id="671-912yYRA_76WJ44N1-5" value="Mostrar mensaje &quot;La medidas de la pieza ingresada son: &quot;" style="shape=parallelogram;perimeter=parallelogramPerimeter;whiteSpace=wrap;html=1;fixedSize=1;rounded=1;" vertex="1" parent="WIyWlLk6GJQsqaUBKTNV-1">
          <mxGeometry x="30" y="530" width="220" height="100" as="geometry" />
        </mxCell>
        <mxCell id="671-912yYRA_76WJ44N1-7" value="Fin" style="ellipse;whiteSpace=wrap;html=1;rounded=1;" vertex="1" parent="WIyWlLk6GJQsqaUBKTNV-1">
          <mxGeometry x="100" y="720" width="80" height="80" as="geometry" />
        </mxCell>
      </root>
    </mxGraphModel>
  </diagram>
</mxfile>
